# AST/ASF file generated using VICON BodyLanguage
# -----------------------------------------------
:version 1.10
:name VICON
:units
  mass 1.0
  length 0.45
  angle deg
:documentation
   .ast/.asf automatically generated from VICON data using
   VICON BodyBuilder and BodyLanguage model FoxedUp or BRILLIANT.MOD
:root
   order TX TY TZ RX RY RZ
   axis XYZ
   position 0 0 0  
   orientation 0 0 0 
:bonedata
  begin
     id 1 
     name lhipjoint
     direction 0.693937 -0.600361 0.397515 
     length 2.37164 
     axis 0 0 0  XYZ
  end
  begin
     id 2 
     name lfemur
     direction 0.34202 -0.939693 0  
     length 6.18497  
     axis 0 0 20  XYZ
    dof rx ry rz
    limits (-160.0 20.0)
           (-70.0 70.0)
           (-60.0 70.0)
  end
  begin
     id 3 
     name ltibia
     direction 0.34202 -0.939693 0   
     length 6.91601   
     axis 0 0 20   XYZ
    dof rx
    limits (-10.0 170.0)
  end
  begin
     id 4 
     name lfoot
     direction 0.0978718 -0.2689 0.958182   
     length 1.81453   
     axis -90 7.62852e-016 20   XYZ
    dof rx rz
    limits (-45.0 90.0)
           (-70.0 20.0)
  end
  begin
     id 5 
     name ltoes
     direction 1.53569e-011 -4.21951e-011 1   
     length 0.912052   
     axis -90 7.62852e-016 20   XYZ
    dof rx
    limits (-90.0 20.0)
  end
  begin
     id 6 
     name rhipjoint
     direction -0.643996 -0.637876 0.422354   
     length 2.23216  
     axis 0 0 0  XYZ 
  end
  begin
     id 7 
     name rfemur
     direction -0.34202 -0.939693 0   
     length 6.15404   
     axis 0 0 -20   XYZ
    dof rx ry rz
    limits (-160.0 20.0)
           (-70.0 70.0)
           (-70.0 60.0)
  end
  begin
     id 8 
     name rtibia
     direction -0.34202 -0.939693 0   
     length 6.86744   
     axis 0 0 -20   XYZ
    dof rx
    limits (-10.0 170.0)
 end
 begin
     id 9 
     name rfoot
     direction -0.118701 -0.326127 0.937844   
     length 1.9243  
     axis -90 -7.62852e-016 -20   XYZ
    dof rx rz
    limits (-45.0 90.0)
           (-20.0 70.0)
  end
  begin
     id 10 
     name rtoes
     direction -1.5356e-011 -4.2181e-011 1   
     length 0.958865   
     axis -90 -7.62852e-016 -20   XYZ
    dof rx
    limits (-90.0 20.0)
  end
  begin
     id 11 
     name lowerback
     direction 0.0310826 0.968686 -0.246334   
     length 2.00021   
     axis 0 0 0   XYZ
    dof rx ry rz
    limits (-20.0 45.0)
           (-30.0 30.0)
           (-30.0 30.0)
  end
  begin
     id 12 
     name upperback
     direction -0.0152834 0.999474 -0.0286152   
     length 2.03728   
     axis 0 0 0   XYZ
    dof rx ry rz
    limits (-20.0 45.0)
           (-30.0 30.0)
           (-30.0 30.0)
  end
  begin
     id 13 
     name thorax
     direction -0.0323701 0.996236 0.0804149   
     length 2.16   
     axis 0 0 0   XYZ
    dof rx ry rz
    limits (-20.0 45.0)
           (-30.0 30.0)
           (-30.0 30.0)
  end
  begin
     id 14 
     name lowerneck
     direction 0.0307935 0.982251 0.185027   
     length 1.43558   
     axis 0 0 0   XYZ
    dof rx ry rz
    limits (-20.0 45.0)
           (-30.0 30.0)
           (-30.0 30.0)
  end
  begin
     id 15 
     name upperneck
     direction -0.0927153 0.994775 0.0427454   
     length 1.44603   
     axis 0 0 0   XYZ
    dof rx ry rz
    limits (-20.0 45.0)
           (-30.0 30.0)
           (-30.0 30.0)
  end
  begin
     id 16
     name head
     direction -0.0341265 0.999406 -0.00472033  
     length 1.45931  
     axis 0 0 0   XYZ
    dof rx ry rz
    limits (-20.0 45.0)
           (-30.0 30.0)
           (-30.0 30.0)
  end
  begin
     id 17 
     name lclavicle
     direction 0.820755 0.555306 -0.134151  
     length 2.66075  
     axis 0 0 0   XYZ
    dof ry rz
    limits (-20.0 10.0)
           (0.0 20.0)
  end
  begin
     id 18 
     name lhumerus
     direction 1 -4.48971e-011 5.24853e-027   
     length 5.0546   
     axis -180 -30 -90   XYZ
    dof rx ry rz
    limits (-60.0 90.0)
           (-90.0 90.0)
           (-90.0 90.0)
  end
  begin
     id 19
     name lradius
     direction 1 -4.48971e-011 2.76575e-028   
     length 3.39013   
     axis -180 -30 -90   XYZ
    dof rx
    limits (-10.0 170.0)
  end
  begin
     id 20
     name lwrist
     direction 1 -4.48939e-011 -2.27826e-027   
     length 1.69507   
     axis 2.17013e-015 90 90   XYZ
    dof ry
    limits (-180.0 0.0)
 end
  begin
     id 21 
     name lhand
     direction 1 -4.49009e-011 -4.55652e-027   
     length 0.572425   
     axis 2.90745e-015 90 90   XYZ
    dof rx rz
    limits (-90.0 90.0)
           (-45.0 45.0)
  end
  begin
     id 22 
     name lfingers
     direction 1 -4.48955e-011 -9.11303e-027   
     length 0.461504   
     axis 5.81489e-015 90 90   XYZ
    dof rx
    limits (0.0 90.0)
  end
  begin
     id 23
     name lthumb
     direction 0.707107 -6.34929e-011 0.707107   
     length 0.66263   
     axis -90 45 2.85299e-015   XYZ
    dof rx rz
    limits (-45.0 45.0)
           (-45.0 45.0)
  end
  begin
     id 24 
     name rclavicle
     direction -0.754477 0.632921 -0.173712   
     length 2.73081  
     axis 0 0 0   XYZ 
    dof ry rz
    limits (-10.0 20.0)
           (-20.0 0.0)
  end
  begin
     id 25 
     name rhumerus
     direction -1 -4.48969e-011 5.1496e-027  
     length 5.0701   
     axis -180 30 90   XYZ
    dof rx ry rz
    limits (-90.0 60.0)
           (-90.0 90.0)
           (-90.0 90.0)
  end
  begin
     id 26 
     name rradius
     direction -1 -4.48967e-011 -7.15624e-028   
     length 3.14957   
     axis -180 30 90   XYZ
    dof rx
    limits (-10.0 170.0)
  end
  begin
     id 27 
     name rwrist
     direction -1 -4.48938e-011 -2.27826e-027   
     length 1.57479   
     axis 2.17013e-015 -90 -90   XYZ
    dof ry
    limits (-180.0 0.0)
  end
  begin
     id 28
     name rhand
     direction -1 -4.49008e-011 -4.55652e-027   
     length 0.718191   
     axis 2.90745e-015 -90 -90   XYZ
    dof rx rz
    limits (-90.0 90.0)
           (-45.0 45.0)
  end
  begin
     id 29
     name rfingers
     direction -1 -4.48953e-011 -9.11303e-027   
     length 0.579024   
     axis 5.81489e-015 -90 -90   XYZ
    dof rx
    limits (0.0 90.0)
  end
  begin
     id 30
     name rthumb
     direction -0.707107 -6.34937e-011 0.707107   
     length 0.831366   
     axis -90 -45 -2.85299e-015   XYZ
    dof rx rz
    limits (-45.0 45.0)
           (-45.0 45.0)
  end
:hierarchy
  begin
    root lhipjoint rhipjoint lowerback
    lhipjoint lfemur
    lfemur ltibia
    ltibia lfoot
    lfoot ltoes
    rhipjoint rfemur
    rfemur rtibia
    rtibia rfoot
    rfoot rtoes
    lowerback upperback
    upperback thorax
    thorax lowerneck lclavicle rclavicle
    lowerneck upperneck
    upperneck head
    lclavicle lhumerus
    lhumerus lradius
    lradius lwrist
    lwrist lhand lthumb
    lhand lfingers
    rclavicle rhumerus
    rhumerus rradius
    rradius rwrist
    rwrist rhand rthumb
    rhand rfingers
  end

#!OML:ASF H:\Male1\Project 1\Capture day 1\Session 1\Male1.ASF
:FULLY-SPECIFIED
:DEGREES
1
root 21.5473 15.1561 -0.610973 167.332 -83.6684 -170.858
lowerback 5.99351 -0.823579 0.412093
upperback 5.03682 -1.26475 1.62366
thorax 1.85837 -0.72154 1.49013
lowerneck -4.42666 -6.06789 0.606146
upperneck 2.32589 -8.20036 1.89969
head 1.51953 -4.05101 0.270573
rclavicle 1.53064e-014 -9.54166e-015
rhumerus -26.713 -5.74246 -85.0974
rradius 49.1373
rwrist -33.7786
rhand -13.376 -6.842
rfingers 7.12502
rthumb 12.7308 -36.4339
lclavicle 1.53064e-014 -9.54166e-015
lhumerus -22.3496 -15.2869 90.1835
lradius 29.3473
lwrist 3.1763
lhand -18.1903 10.8753
lfingers 7.12502
lthumb 8.08668 40.7006
rfemur -8.73096 15.7824 23.3595
rtibia 32.99
rfoot -34.7404 -32.0255
rtoes -19.0577
lfemur -8.16581 -13.8418 -16.2001
ltibia 34.3473
lfoot -28.0628 24.9072
ltoes -0.64585
2
root 21.5446 15.1559 -0.608388 167.13 -83.5622 -170.634
lowerback 5.88731 -0.778944 0.51315
upperback 5.05504 -1.20226 1.58371
thorax 1.93178 -0.686615 1.38759
lowerneck -4.71494 -5.44332 0.770669
upperneck 2.87245 -7.37989 1.5938
head 1.72165 -3.63792 0.153438
rclavicle 3.31473e-014 -9.54166e-015
rhumerus -26.6994 -4.94221 -85.6082
rradius 49.3199
rwrist -36.3442
rhand -16.3841 -6.45986
rfingers 7.12502
rthumb 9.82956 -36.2104
lclavicle 3.31473e-014 -9.54166e-015
lhumerus -22.5011 -14.7842 89.9052
lradius 29.4179
lwrist 2.83287
lhand -17.6939 11.0392
lfingers 7.12502
lthumb 8.56572 40.8454
rfemur -8.75892 15.8987 23.4078
rtibia 33.0015
rfoot -34.7423 -32.0877
rtoes -19.0462
lfemur -8.15216 -13.8629 -16.174
ltibia 34.3473
lfoot -28.1683 24.9608
ltoes -0.37642
3
root 21.5452 15.1564 -0.6062 167.939 -83.6077 -171.422
lowerback 5.81096 -0.745465 0.476638
upperback 5.05048 -1.15678 1.49954
thorax 1.96718 -0.662354 1.31829
lowerneck -5.05899 -4.75029 0.88091
upperneck 3.49674 -6.47368 1.4471
head 1.97342 -3.17919 0.096658
rclavicle 7.50412e-015 -1.11319e-014
rhumerus -26.7708 -4.17364 -86.085
rradius 49.6001
rwrist -38.9747
rhand -19.3193 -5.91616
rfingers 7.12502
rthumb 6.99691 -35.7805
lclavicle 7.50412e-015 -1.11319e-014
lhumerus -22.5759 -14.3955 89.6208
lradius 29.3491
lwrist 2.51394
lhand -17.2464 11.0882
lfingers 7.12502
lthumb 8.99754 40.8763
rfemur -8.79518 15.892 23.2862
rtibia 33.0224
rfoot -34.8206 -32.0656
rtoes -18.9951
lfemur -8.18603 -13.8472 -16.2803
ltibia 34.3385
lfoot -28.0696 24.9923
ltoes -0.631738
4
root 21.5452 15.1567 -0.603459 167.716 -83.6224 -171.198
lowerback 5.73122 -0.659767 0.599147
upperback 5.07835 -1.03776 1.40563
thorax 2.03397 -0.597339 1.14681
lowerneck -5.39462 -4.09553 1.23935
upperneck 4.01734 -5.62847 1.18475
head 2.18357 -2.75244 -0.0336115
rclavicle 6.26172e-015 -3.97569e-015
rhumerus -26.8233 -3.61687 -86.5455
rradius 49.8289
rwrist -41.8379
rhand -22.0457 -4.84011
rfingers 7.12502
rthumb 4.36466 -34.7751
lclavicle 6.26172e-015 -3.97569e-015
lhumerus -22.5266 -14.1636 89.3188
lradius 29.2088
lwrist 2.17839
lhand -16.7546 11.1024
lfingers 7.12502
lthumb 9.47217 40.8695
rfemur -8.81195 15.8701 23.2967
rtibia 33.0655
rfoot -34.9094 -31.9972
rtoes -18.9291
lfemur -8.18177 -13.8657 -16.2679
ltibia 34.3131
lfoot -28.013 25.0576
ltoes -0.853233
5
root 21.5468 15.1561 -0.601028 167.568 -83.7762 -171.003
lowerback 5.65742 -0.594033 0.687409
upperback 5.07597 -0.944418 1.30895
thorax 2.06783 -0.545257 0.993302
lowerneck -5.58358 -3.47545 1.83007
upperneck 4.32445 -4.82939 0.710881
head 2.29236 -2.3544 -0.262771
rclavicle 2.70844e-014 5.96354e-015
rhumerus -26.9061 -3.17022 -86.944
rradius 49.9125
rwrist -43.7166
rhand -24.5191 -4.04994
rfingers 7.12502
rthumb 1.97601 -34.0205
lclavicle 2.70844e-014 5.96354e-015
lhumerus -22.4602 -13.9212 89.0177
lradius 29.1145
lwrist 1.642
lhand -16.1059 11.2475
lfingers 7.12502
lthumb 10.098 40.9852
rfemur -8.88126 15.837 23.2718
rtibia 33.1383
rfoot -34.9933 -31.894
rtoes -17.7119
lfemur -8.2542 -13.9419 -16.2779
ltibia 34.266
lfoot -27.8286 25.2574
ltoes -1.9011
6
root 21.55 15.1542 -0.598789 168.666 -84.0559 -172.042
lowerback 5.60296 -0.57087 0.577562
upperback 5.05511 -0.913529 1.22034
thorax 2.07596 -0.529908 0.961978
lowerneck -5.44112 -2.8527 2.33907
upperneck 4.26085 -4.00718 0.257386
head 2.23082 -1.95092 -0.459449
rclavicle 1.26228e-014 -7.95139e-016
rhumerus -27.1241 -2.15602 -87.506
rradius 50.2478
rwrist -44.8095
rhand -28.701 -4.16592
rfingers 7.12502
rthumb -2.06294 -34.1357
lclavicle 1.26228e-014 -7.95139e-016
lhumerus -22.3768 -13.5738 88.7399
lradius 29.0191
lwrist 0.961898
lhand -14.8763 11.3466
lfingers 7.12502
lthumb 11.2841 41.0231
rfemur -8.97841 15.6952 23.0653
rtibia 33.2205
rfoot -35.0567 -31.6412
rtoes -15.2851
lfemur -8.36353 -14.0041 -16.4493
ltibia 34.2081
lfoot -27.431 25.4937
ltoes -3.87031
7
root 21.5536 15.153 -0.597846 169.418 -84.2545 -172.774
lowerback 5.59165 -0.515481 0.505546
upperback 5.08275 -0.841551 1.14015
thorax 2.10954 -0.494441 0.916891
lowerneck -5.24853 -2.23225 2.76371
upperneck 4.03153 -3.18237 -0.10723
head 2.11803 -1.54638 -0.612965
rclavicle -1.78409e-014 -1.78906e-015
rhumerus -27.3029 -1.6235 -87.8561
rradius 50.6957
rwrist -46.8524
rhand -31.4097 -3.75964
rfingers 7.12502
rthumb -4.67878 -33.688
lclavicle -1.78409e-014 -1.78906e-015
lhumerus -22.2176 -13.2605 88.4648
lradius 28.9278
lwrist 0.441893
lhand -14.8342 11.3043
lfingers 7.12502
lthumb 11.3246 40.9785
rfemur -9.04146 15.5946 22.9308
rtibia 33.3034
rfoot -35.0696 -31.5272
rtoes -14.1674
lfemur -8.41823 -14.0229 -16.5552
ltibia 34.1467
lfoot -27.1657 25.476
ltoes -4.72098
8
root 21.5558 15.1533 -0.597495 169.908 -84.3783 -173.249
lowerback 5.58801 -0.439398 0.44986
upperback 5.1227 -0.742579 1.07404
thorax 2.15137 -0.445689 0.876227
lowerneck -5.12065 -1.64409 3.2149
upperneck 3.80826 -2.4011 -0.5423
head 2.02558 -1.16428 -0.798555
rclavicle 2.36554e-014 -6.75868e-015
rhumerus -27.5369 -1.16384 -88.1938
rradius 51.178
rwrist -48.907
rhand -33.9676 -2.73196
rfingers 7.12502
rthumb -7.14827 -32.5912
lclavicle 2.36554e-014 -6.75868e-015
lhumerus -22.1081 -12.9463 88.1994
lradius 28.9113
lwrist 0.109253
lhand -14.6983 11.2073
lfingers 7.12502
lthumb 11.4557 40.8743
rfemur -9.08166 15.5425 22.8475
rtibia 33.3597
rfoot -34.9603 -31.6075
rtoes -14.4609
lfemur -8.47 -14.0347 -16.6123
ltibia 34.1065
lfoot -27.0074 25.3724
ltoes -4.82158
9
root 21.555 15.1537 -0.596683 170.085 -84.4755 -173.416
lowerback 5.55398 -0.357444 0.428355
upperback 5.13961 -0.633448 1.01601
thorax 2.18591 -0.390433 0.824281
lowerneck -4.8969 -1.15213 3.74216
upperneck 3.59687 -1.74513 -1.0835
head 1.92448 -0.845552 -1.03632
rclavicle 6.21202e-015 -6.55989e-015
rhumerus -27.8839 -0.684322 -88.5008
rradius 51.6624
rwrist -50.9825
rhand -36.2555 -1.16152
rfingers 7.12502
rthumb -9.35634 -30.9339
lclavicle 6.21202e-015 -6.55989e-015
lhumerus -22.1236 -12.7144 87.9604
lradius 28.9673
lwrist -0.00318097
lhand -14.5795 11.215
lfingers 7.12502
lthumb 11.5703 40.8756
rfemur -9.0795 15.456 22.8012
rtibia 33.3626
rfoot -34.8894 -31.6455
rtoes -14.5771
lfemur -8.51136 -14.1095 -16.6515
ltibia 34.1119
lfoot -26.8989 25.4401
ltoes -5.1733
10
root 21.5528 15.1531 -0.596207 168.956 -84.5565 -172.312
lowerback 5.57769 -0.237906 0.588836
upperback 5.13702 -0.466107 0.926539
thorax 2.16615 -0.299867 0.636648
lowerneck -4.71681 -0.747985 4.30664
upperneck 3.55123 -1.2179 -1.4766
head 1.89019 -0.584725 -1.24245
rclavicle -7.70291e-015 3.97569e-015
rhumerus -28.2887 -0.383898 -88.8275
rradius 52.086
rwrist -53.0257
rhand -38.2111 0.631813
rfingers 7.12502
rthumb -11.2429 -29.0469
lclavicle -7.70291e-015 3.97569e-015
lhumerus -22.1611 -12.6297 87.7086
lradius 29.0146
lwrist -0.0430847
lhand -14.562 11.1528
lfingers 7.12502
lthumb 11.5871 40.8124
rfemur -9.00914 15.4136 22.909
rtibia 33.3303
rfoot -34.9431 -31.6932
rtoes -14.5606
lfemur -8.50311 -14.2126 -16.5694
ltibia 34.1507
lfoot -26.9088 25.4579
ltoes -5.20258
